<?xml version="1.0" encoding="UTF-8" standalone="no"?>
<!-- Created with Inkscape (http://www.inkscape.org/) -->

<svg
   xmlns:dc="http://purl.org/dc/elements/1.1/"
   xmlns:cc="http://creativecommons.org/ns#"
   xmlns:rdf="http://www.w3.org/1999/02/22-rdf-syntax-ns#"
   xmlns:svg="http://www.w3.org/2000/svg"
   xmlns="http://www.w3.org/2000/svg"
   xmlns:sodipodi="http://sodipodi.sourceforge.net/DTD/sodipodi-0.dtd"
   xmlns:inkscape="http://www.inkscape.org/namespaces/inkscape"
   width="744.09448819"
   height="1052.3622047"
   id="svg5452"
   version="1.1"
   inkscape:version="0.48.2 r9819"
   sodipodi:docname="corpse.svg">
  <defs
     id="defs5454" />
  <sodipodi:namedview
     id="base"
     pagecolor="#ffffff"
     bordercolor="#666666"
     borderopacity="1.0"
     inkscape:pageopacity="0.0"
     inkscape:pageshadow="2"
     inkscape:zoom="0.35"
     inkscape:cx="375"
     inkscape:cy="520"
     inkscape:document-units="px"
     inkscape:current-layer="layer1"
     showgrid="false"
     inkscape:window-width="908"
     inkscape:window-height="765"
     inkscape:window-x="60"
     inkscape:window-y="60"
     inkscape:window-maximized="0" />
  <metadata
     id="metadata5457">
    <rdf:RDF>
      <cc:Work
         rdf:about="">
        <dc:format>image/svg+xml</dc:format>
        <dc:type
           rdf:resource="http://purl.org/dc/dcmitype/StillImage" />
        <dc:title></dc:title>
      </cc:Work>
    </rdf:RDF>
  </metadata>
  <g
     inkscape:label="Layer 1"
     inkscape:groupmode="layer"
     id="layer1">
    <path
       style="fill:#000000;fill-opacity:1;stroke:none"
       d="m 0,1020.3013 11.26464,21.6628 48.524596,-36.3935 -28.594853,29.8946 -8.665107,-2.1662 5.199065,19.0632 73.653409,-64.12179 -26.861835,28.59489 5.199065,5.199 40.726,-41.59249 -16.4637,-5.19906 9.53162,-2.59954 c 0,0 10.39812,-2.59953 11.26463,-10.39813 0.86651,-7.79859 -5.19906,-18.19672 -13.86417,-14.73068 -8.6651,3.46605 -13.864166,-0.86651 -13.864166,-0.86651 l 0.86651,6.06558 -7.798594,3.46604 2.599529,13.86417 -16.463701,-1.73302 -43.325532,29.46136 5.199064,4.33258 31.19438,-19.92977 -57.1897,43.75877 z"
       id="path5968"
       inkscape:connector-curvature="0"
       sodipodi:nodetypes="ccccccccccccsscccccccccc" />
  </g>
</svg>
