<?xml version="1.0" encoding="UTF-8" standalone="no"?>
<!-- Created with Inkscape (http://www.inkscape.org/) -->

<svg
   xmlns:dc="http://purl.org/dc/elements/1.1/"
   xmlns:cc="http://creativecommons.org/ns#"
   xmlns:rdf="http://www.w3.org/1999/02/22-rdf-syntax-ns#"
   xmlns:svg="http://www.w3.org/2000/svg"
   xmlns="http://www.w3.org/2000/svg"
   xmlns:sodipodi="http://sodipodi.sourceforge.net/DTD/sodipodi-0.dtd"
   xmlns:inkscape="http://www.inkscape.org/namespaces/inkscape"
   width="744.09448819"
   height="1052.3622047"
   id="svg4655"
   version="1.1"
   inkscape:version="0.48.2 r9819"
   sodipodi:docname="fetus.svg">
  <defs
     id="defs4657" />
  <sodipodi:namedview
     id="base"
     pagecolor="#ffffff"
     bordercolor="#666666"
     borderopacity="1.0"
     inkscape:pageopacity="0.0"
     inkscape:pageshadow="2"
     inkscape:zoom="0.98994949"
     inkscape:cx="372.82737"
     inkscape:cy="248.63698"
     inkscape:document-units="px"
     inkscape:current-layer="layer1"
     showgrid="false"
     inkscape:window-width="1213"
     inkscape:window-height="766"
     inkscape:window-x="40"
     inkscape:window-y="40"
     inkscape:window-maximized="0" />
  <metadata
     id="metadata4660">
    <rdf:RDF>
      <cc:Work
         rdf:about="">
        <dc:format>image/svg+xml</dc:format>
        <dc:type
           rdf:resource="http://purl.org/dc/dcmitype/StillImage" />
        <dc:title></dc:title>
      </cc:Work>
    </rdf:RDF>
  </metadata>
  <g
     inkscape:label="Layer 1"
     inkscape:groupmode="layer"
     id="layer1">
    <path
       style="fill:#000000;stroke:none"
       d="M 8.1220964,1042.5904 0,1036.5252 l 18.274716,-25.6088 12.995354,-1.3478 19.493036,9.7717 8.122096,-13.1413 -13.807566,5.7283 -12.183147,-19.88055 10.964836,-7.41307 3.654942,16.17392 15.025877,-8.4239 -2.436631,-2.69566 -0.406103,-4.04349 -6.903781,0 c 0,0 2.766201,-8.71554 1.624419,-10.10874 -6.903785,-8.42394 -2.842735,-28.30445 20.711347,-27.29358 23.554081,1.01088 28.722885,21.43784 23.554081,27.29358 -21.11745,23.92401 -5.17929,51.99329 -23.147977,59.30459 -17.968688,7.3113 -38.173855,-4.0435 -38.173855,-4.0435 l -11.777039,21.5653 -9.340412,-5.7283 10.964831,-24.261 z"
       id="path4663"
       inkscape:connector-curvature="0"
       sodipodi:nodetypes="ccccccccccccccssszccccc" />
  </g>
</svg>
