<?xml version="1.0" encoding="UTF-8" standalone="no"?>
<!-- Created with Inkscape (http://www.inkscape.org/) -->

<svg
   xmlns:dc="http://purl.org/dc/elements/1.1/"
   xmlns:cc="http://creativecommons.org/ns#"
   xmlns:rdf="http://www.w3.org/1999/02/22-rdf-syntax-ns#"
   xmlns:svg="http://www.w3.org/2000/svg"
   xmlns="http://www.w3.org/2000/svg"
   xmlns:sodipodi="http://sodipodi.sourceforge.net/DTD/sodipodi-0.dtd"
   xmlns:inkscape="http://www.inkscape.org/namespaces/inkscape"
   width="744.09448819"
   height="1052.3622047"
   id="svg5452"
   version="1.1"
   inkscape:version="0.48.3.1 r9886"
   sodipodi:docname="corpse.svg"
   inkscape:export-filename="/home/oleg/Localdev/3d/makeopendata-intro/obj/corpse.png"
   inkscape:export-xdpi="200"
   inkscape:export-ydpi="200">
  <defs
     id="defs5454" />
  <sodipodi:namedview
     id="base"
     pagecolor="#ffffff"
     bordercolor="#666666"
     borderopacity="1.0"
     inkscape:pageopacity="0.0"
     inkscape:pageshadow="2"
     inkscape:zoom="0.98112735"
     inkscape:cx="449.93508"
     inkscape:cy="596.41742"
     inkscape:document-units="px"
     inkscape:current-layer="layer2"
     showgrid="false"
     inkscape:window-width="1280"
     inkscape:window-height="776"
     inkscape:window-x="0"
     inkscape:window-y="24"
     inkscape:window-maximized="1" />
  <metadata
     id="metadata5457">
    <rdf:RDF>
      <cc:Work
         rdf:about="">
        <dc:format>image/svg+xml</dc:format>
        <dc:type
           rdf:resource="http://purl.org/dc/dcmitype/StillImage" />
        <dc:title></dc:title>
      </cc:Work>
    </rdf:RDF>
  </metadata>
  <g
     inkscape:label="Layer 1"
     inkscape:groupmode="layer"
     id="layer1"
     sodipodi:insensitive="true">
    <rect
       style="fill:#4d4d4d;fill-opacity:1;stroke:none"
       id="rect3777"
       width="736.29547"
       height="1029.7274"
       x="2.8570402"
       y="14.538242" />
  </g>
  <g
     inkscape:groupmode="layer"
     id="layer2"
     inkscape:label="Layer">
    <path
       style="fill:#fff79a;fill-opacity:1;stroke:none"
       d="m 258.86568,480.5636 2.69582,5.18427 11.61274,-8.70957 -6.84322,7.15428 -2.07371,-0.51841 1.24422,4.56214 17.62649,-15.34541 -6.42848,6.84323 1.24422,1.24421 9.74641,-9.95378 -3.94004,-1.24422 2.28108,-0.62212 c 0,0 2.48844,-0.6221 2.69581,-2.48844 0.20738,-1.86634 -1.24422,-4.35478 -3.31792,-3.5253 -2.07371,0.82949 -3.31793,-0.20737 -3.31793,-0.20737 l 0.20737,1.45159 -1.86633,0.82949 0.62211,3.31793 -3.94004,-0.41475 -10.36853,7.0506 1.24423,1.03685 7.46533,-4.76952 -13.68644,10.47221 z"
       id="path5968"
       inkscape:connector-curvature="0"
       sodipodi:nodetypes="ccccccccccccsscccccccccc" />
    <flowRoot
       xml:space="preserve"
       id="flowRoot3812"
       style="fill:black;stroke:none;stroke-opacity:1;stroke-width:1px;stroke-linejoin:miter;stroke-linecap:butt;fill-opacity:1;font-family:Liberation Sans Narrow;font-style:normal;font-weight:bold;font-size:14px;line-height:125%;letter-spacing:0px;word-spacing:0px;-inkscape-font-specification:Liberation Sans Narrow Bold Condensed;font-stretch:condensed;font-variant:normal"><flowRegion
         id="flowRegion3814"><rect
           id="rect3816"
           width="213.02026"
           height="302.71298"
           x="442.3483"
           y="252.26218" /></flowRegion><flowPara
         id="flowPara3818"></flowPara></flowRoot>    <flowRoot
       xml:space="preserve"
       id="flowRoot3831"
       style="font-size:16px;font-style:normal;font-variant:normal;font-weight:bold;font-stretch:condensed;text-align:start;line-height:150%;letter-spacing:0px;word-spacing:0px;writing-mode:lr-tb;text-anchor:start;fill:#000000;fill-opacity:1;stroke:none;font-family:Liberation Sans Narrow;-inkscape-font-specification:Liberation Sans Narrow Bold Condensed"
       transform="translate(-85.615797,209.96255)"><flowRegion
         id="flowRegion3833"><rect
           id="rect3835"
           width="430.11746"
           height="204.86636"
           x="383.2326"
           y="253.28142"
           style="font-size:16px;font-style:normal;font-variant:normal;font-weight:bold;font-stretch:condensed;text-align:start;line-height:150%;writing-mode:lr-tb;text-anchor:start;fill:#000000;fill-opacity:1;font-family:Liberation Sans Narrow;-inkscape-font-specification:Liberation Sans Narrow Bold Condensed" /></flowRegion><flowPara
         id="flowPara3837">Maladies infectieuses</flowPara><flowPara
         id="flowPara3839">Tumeurs malignes</flowPara><flowPara
         id="flowPara3841">Diabète sucré</flowPara><flowPara
         id="flowPara3843">Démence</flowPara><flowPara
         id="flowPara3845">Appareil circulatoire</flowPara><flowPara
         id="flowPara3847">Appareil respiratoire</flowPara><flowPara
         id="flowPara3849">Cirrhose du foie alcoolique</flowPara><flowPara
         id="flowPara3851">Accidents et traumatismes</flowPara><flowPara
         id="flowPara3853" /></flowRoot>    <path
       sodipodi:nodetypes="ccccccccccccsscccccccccc"
       inkscape:connector-curvature="0"
       id="path3855"
       d="m 258.86568,505.13502 2.69582,5.18427 11.61274,-8.70957 -6.84322,7.15428 -2.07371,-0.51841 1.24422,4.56214 17.62649,-15.34541 -6.42848,6.84323 1.24422,1.24421 9.74641,-9.95378 -3.94004,-1.24422 2.28108,-0.62212 c 0,0 2.48844,-0.6221 2.69581,-2.48844 0.20738,-1.86634 -1.24422,-4.35478 -3.31792,-3.5253 -2.07371,0.82949 -3.31793,-0.20737 -3.31793,-0.20737 l 0.20737,1.45159 -1.86633,0.82949 0.62211,3.31793 -3.94004,-0.41475 -10.36853,7.0506 1.24423,1.03685 7.46533,-4.76952 -13.68644,10.47221 z"
       style="fill:#a187be;fill-opacity:1;stroke:none" />
    <path
       style="fill:#f9ad81;fill-opacity:1;stroke:none"
       d="m 258.86568,529.70645 2.69582,5.18427 11.61274,-8.70957 -6.84322,7.15428 -2.07371,-0.51841 1.24422,4.56214 17.62649,-15.34541 -6.42848,6.84323 1.24422,1.24421 9.74641,-9.95378 -3.94004,-1.24422 2.28108,-0.62212 c 0,0 2.48844,-0.6221 2.69581,-2.48844 0.20738,-1.86634 -1.24422,-4.35478 -3.31792,-3.5253 -2.07371,0.82949 -3.31793,-0.20737 -3.31793,-0.20737 l 0.20737,1.45159 -1.86633,0.82949 0.62211,3.31793 -3.94004,-0.41475 -10.36853,7.0506 1.24423,1.03685 7.46533,-4.76952 -13.68644,10.47221 z"
       id="path3857"
       inkscape:connector-curvature="0"
       sodipodi:nodetypes="ccccccccccccsscccccccccc" />
    <path
       sodipodi:nodetypes="ccccccccccccsscccccccccc"
       inkscape:connector-curvature="0"
       id="path3859"
       d="m 258.86568,554.2779 2.69582,5.18427 11.61274,-8.70957 -6.84322,7.15428 -2.07371,-0.51841 1.24422,4.56214 17.62649,-15.34541 -6.42848,6.84323 1.24422,1.24421 9.74641,-9.95378 -3.94004,-1.24422 2.28108,-0.62212 c 0,0 2.48844,-0.6221 2.69581,-2.48844 0.20738,-1.86634 -1.24422,-4.35478 -3.31792,-3.5253 -2.07371,0.82949 -3.31793,-0.20737 -3.31793,-0.20737 l 0.20737,1.45159 -1.86633,0.82949 0.62211,3.31793 -3.94004,-0.41475 -10.36853,7.0506 1.24423,1.03685 7.46533,-4.76952 -13.68644,10.47221 z"
       style="fill:#c4df9b;fill-opacity:1;stroke:none" />
    <path
       style="fill:#959595;fill-opacity:1;stroke:none"
       d="m 258.86568,603.42075 2.69582,5.18427 11.61274,-8.70957 -6.84322,7.15428 -2.07371,-0.51841 1.24422,4.56214 17.62649,-15.34541 -6.42848,6.84323 1.24422,1.24421 9.74641,-9.95378 -3.94004,-1.24422 2.28108,-0.62212 c 0,0 2.48844,-0.6221 2.69581,-2.48844 0.20738,-1.86634 -1.24422,-4.35478 -3.31792,-3.5253 -2.07371,0.82949 -3.31793,-0.20737 -3.31793,-0.20737 l 0.20737,1.45159 -1.86633,0.82949 0.62211,3.31793 -3.94004,-0.41475 -10.36853,7.0506 1.24423,1.03685 7.46533,-4.76952 -13.68644,10.47221 z"
       id="path3861"
       inkscape:connector-curvature="0"
       sodipodi:nodetypes="ccccccccccccsscccccccccc" />
    <path
       sodipodi:nodetypes="ccccccccccccsscccccccccc"
       inkscape:connector-curvature="0"
       id="path3863"
       d="m 258.86568,578.84933 2.69582,5.18427 11.61274,-8.70957 -6.84322,7.15428 -2.07371,-0.51841 1.24422,4.56214 17.62649,-15.34541 -6.42848,6.84323 1.24422,1.24421 9.74641,-9.95378 -3.94004,-1.24422 2.28108,-0.62212 c 0,0 2.48844,-0.6221 2.69581,-2.48844 0.20738,-1.86634 -1.24422,-4.35478 -3.31792,-3.5253 -2.07371,0.82949 -3.31793,-0.20737 -3.31793,-0.20737 l 0.20737,1.45159 -1.86633,0.82949 0.62211,3.31793 -3.94004,-0.41475 -10.36853,7.0506 1.24423,1.03685 7.46533,-4.76952 -13.68644,10.47221 z"
       style="fill:#f49ac2;fill-opacity:1;stroke:none" />
    <path
       style="fill:#8493ca;fill-opacity:1;stroke:none"
       d="m 258.86568,627.99218 2.69582,5.18427 11.61274,-8.70957 -6.84322,7.15428 -2.07371,-0.51841 1.24422,4.56214 17.62649,-15.34541 -6.42848,6.84323 1.24422,1.24421 9.74641,-9.95378 -3.94004,-1.24422 2.28108,-0.62212 c 0,0 2.48844,-0.6221 2.69581,-2.48844 0.20738,-1.86634 -1.24422,-4.35478 -3.31792,-3.5253 -2.07371,0.82949 -3.31793,-0.20737 -3.31793,-0.20737 l 0.20737,1.45159 -1.86633,0.82949 0.62211,3.31793 -3.94004,-0.41475 -10.36853,7.0506 1.24423,1.03685 7.46533,-4.76952 -13.68644,10.47221 z"
       id="path3865"
       inkscape:connector-curvature="0"
       sodipodi:nodetypes="ccccccccccccsscccccccccc" />
    <path
       sodipodi:nodetypes="ccccccccccccsscccccccccc"
       inkscape:connector-curvature="0"
       id="path3867"
       d="m 258.86568,652.5636 2.69582,5.18427 11.61274,-8.70957 -6.84322,7.15428 -2.07371,-0.51841 1.24422,4.56214 17.62649,-15.34541 -6.42848,6.84323 1.24422,1.24421 9.74641,-9.95378 -3.94004,-1.24422 2.28108,-0.62212 c 0,0 2.48844,-0.6221 2.69581,-2.48844 0.20738,-1.86634 -1.24422,-4.35478 -3.31792,-3.5253 -2.07371,0.82949 -3.31793,-0.20737 -3.31793,-0.20737 l 0.20737,1.45159 -1.86633,0.82949 0.62211,3.31793 -3.94004,-0.41475 -10.36853,7.0506 1.24423,1.03685 7.46533,-4.76952 -13.68644,10.47221 z"
       style="fill:#7bcdc8;fill-opacity:1;stroke:none" />
  </g>
</svg>
