<?xml version="1.0" encoding="UTF-8" standalone="no"?>
<!-- Created with Inkscape (http://www.inkscape.org/) -->

<svg
   xmlns:dc="http://purl.org/dc/elements/1.1/"
   xmlns:cc="http://creativecommons.org/ns#"
   xmlns:rdf="http://www.w3.org/1999/02/22-rdf-syntax-ns#"
   xmlns:svg="http://www.w3.org/2000/svg"
   xmlns="http://www.w3.org/2000/svg"
   xmlns:sodipodi="http://sodipodi.sourceforge.net/DTD/sodipodi-0.dtd"
   xmlns:inkscape="http://www.inkscape.org/namespaces/inkscape"
   width="744.09448819"
   height="1052.3622047"
   id="svg4572"
   version="1.1"
   inkscape:version="0.48.2 r9819"
   sodipodi:docname="New document 3">
  <defs
     id="defs4574" />
  <sodipodi:namedview
     id="base"
     pagecolor="#ffffff"
     bordercolor="#666666"
     borderopacity="1.0"
     inkscape:pageopacity="0.0"
     inkscape:pageshadow="2"
     inkscape:zoom="1.979899"
     inkscape:cx="438.51887"
     inkscape:cy="564.50623"
     inkscape:document-units="px"
     inkscape:current-layer="layer1"
     showgrid="false"
     inkscape:window-width="1274"
     inkscape:window-height="862"
     inkscape:window-x="20"
     inkscape:window-y="20"
     inkscape:window-maximized="0" />
  <metadata
     id="metadata4577">
    <rdf:RDF>
      <cc:Work
         rdf:about="">
        <dc:format>image/svg+xml</dc:format>
        <dc:type
           rdf:resource="http://purl.org/dc/dcmitype/StillImage" />
        <dc:title></dc:title>
      </cc:Work>
    </rdf:RDF>
  </metadata>
  <g
     inkscape:label="Layer 1"
     inkscape:groupmode="layer"
     id="layer1">
    <path
       style="opacity:0.80000299;fill:#000000;fill-opacity:1;fill-rule:nonzero;stroke:none"
       d="M 411 418.09375 L 409.3125 420.9375 L 403.3125 421.9375 L 401.53125 426.59375 L 398.15625 429.46875 L 398.1875 431.1875 L 398.21875 434.09375 L 403.25 435.9375 L 403.9375 434.15625 L 409.6875 432.53125 L 413.84375 434.59375 L 414.84375 437.34375 L 415.03125 437.875 L 413.78125 443.46875 L 411.3125 443.21875 L 410.09375 439.625 L 407.34375 438.9375 L 403 439.34375 L 401.8125 442.4375 L 403.65625 444.28125 L 400.34375 445.5625 L 397.1875 444.375 L 395.03125 445.375 L 392.84375 445.375 L 391.28125 443.84375 L 389.15625 443.59375 L 389.65625 440.46875 L 388.09375 439.25 L 386.59375 439.90625 L 383.125 438.0625 L 381 438.75 L 380.40625 440.9375 L 377.34375 441.28125 L 374.84375 442.28125 L 374.5625 444.46875 L 372.75 445.375 L 370.875 445.09375 L 369 445.71875 L 368.125 447.0625 L 366.875 447.0625 L 365.3125 446.46875 L 362.8125 446.5 L 360.375 448.71875 L 358.78125 447.21875 L 359.40625 445.34375 L 358.78125 443.46875 L 356.25 443.53125 L 352.8125 442.03125 L 350.65625 443.34375 L 348.84375 446.125 L 345.8125 448.375 L 342.03125 447.78125 L 340.8125 446.84375 L 338.90625 447.21875 L 338.125 446.03125 L 340.5 443.625 L 340.5 441.6875 L 339.21875 442.84375 L 338.1875 442.0625 L 335.71875 444.71875 L 334.25 444.15625 L 333.59375 442.96875 L 325.1875 447.625 L 325.53125 451.40625 L 319.84375 454 L 319.59375 457.0625 L 312.25 458.5625 L 309.21875 457.875 L 302.96875 458.9375 L 298.125 457.125 L 298.40625 454.0625 L 300.03125 450.65625 L 295.4375 448.8125 L 291.21875 450.15625 L 284.375 448.375 L 279.375 459.84375 L 274.84375 461.96875 L 274.59375 464.625 L 280.75 465.25 L 286.28125 464.03125 L 290.4375 467.125 L 285.40625 467.9375 L 284.71875 471 L 279.03125 473.625 L 278.09375 478.875 L 273.34375 481.46875 L 270 487.90625 L 265.875 488.78125 L 259.4375 495.28125 L 258.96875 499.3125 L 253.5 500.96875 L 252.21875 504.84375 L 245.84375 506 L 241.375 506 L 236.65625 512.6875 L 238.65625 515.125 L 236.34375 524.71875 L 237.28125 529.3125 L 235.59375 531.09375 L 235.46875 531.21875 L 233.4375 533.75 L 228.90625 534.125 L 223.5 537.40625 L 209.34375 548.40625 L 212.09375 552.25 L 210.71875 557.46875 L 206.8125 560.625 L 201.46875 569.46875 L 206.375 569.53125 L 209.5 573.25 L 206.0625 581.78125 L 205.5625 588.25 L 198.71875 587.53125 L 193.625 594.1875 L 196.59375 595.375 L 194.8125 600.125 L 203.125 599.15625 L 208.96875 601.53125 L 213.75 597.875 L 217.09375 591.53125 L 222.21875 590.65625 L 222 586.78125 L 219.28125 587.34375 L 217.78125 584.09375 L 218.15625 580.40625 L 216.65625 579.78125 L 216.84375 576.78125 L 220.84375 572.75 L 226.21875 571.40625 L 231.71875 568.375 L 236.71875 566.75 L 243.75 566.40625 L 250.9375 567.25 L 258.375 569.9375 L 261.96875 573.28125 L 261.1875 575.5 L 261.53125 576.90625 L 260 578.9375 L 262.625 583.25 L 266 585.8125 L 266.125 588.8125 L 260.65625 594.1875 L 261.71875 597.03125 L 261.03125 599.15625 L 258.59375 601.125 L 259.25 603.5 L 261.96875 603.75 L 264.84375 605.84375 L 267.5625 605.65625 L 268.65625 608 L 265.8125 609.8125 L 265.25 612.59375 L 268.1875 612.96875 L 270 611.15625 L 271.90625 612.28125 L 271.21875 613.625 L 273.65625 616.15625 L 275.96875 619.9375 L 278.78125 620.9375 L 278.6875 625.125 L 276.40625 625.34375 L 275.6875 627.03125 L 278.75 627.78125 L 279.03125 629.1875 L 277.90625 631.75 L 278.09375 634 L 281.71875 636.90625 L 282.59375 640.28125 L 285.40625 639.53125 L 288.15625 639.28125 L 290.5 640.15625 L 291.03125 637.6875 L 292.71875 636.625 L 292.78125 634.875 L 295.3125 634.53125 L 297.5 632.40625 L 298.75 632.25 L 299.75 633.90625 L 301.5625 633.8125 L 305 635.15625 L 308.8125 634.59375 L 310.96875 631.5 L 314.25 629.15625 L 317.8125 630.21875 L 317.25 628 L 318.875 624.84375 L 320.40625 624.8125 L 321.9375 628.28125 L 323.71875 628.8125 L 324.03125 628 L 328.1875 628.03125 L 330.625 630.5 L 330.4375 632.40625 L 332.28125 633.90625 L 335.59375 632.0625 L 336.625 633.4375 L 339.46875 634.71875 L 341.28125 633.65625 L 342.125 634.375 L 345.15625 634.8125 L 345.53125 633.25 L 346.40625 630.90625 L 346.1875 629.9375 L 348.03125 626.6875 L 351.125 625.6875 L 353.59375 625.625 L 355 624.1875 L 356.84375 624.25 L 357.625 621.09375 L 357.8125 617.0625 L 359.4375 613.75 L 361.25 614.125 L 364.78125 612.1875 L 366.28125 609.4375 L 367.84375 608.65625 L 367.625 607.8125 L 367.375 606.46875 L 369.6875 604.96875 L 368.4375 603.875 L 366.5 600.3125 L 365.65625 597.4375 L 365.28125 596.34375 L 363.84375 596.8125 L 362.875 595.96875 L 365.34375 594.25 L 366.59375 591.25 L 369.3125 591.9375 L 370.46875 590.875 L 373.09375 591.09375 L 374.65625 587.25 L 376.625 585.6875 L 378.6875 582.84375 L 381.5 583.21875 L 382.5625 579.40625 L 381.3125 579.46875 L 383.125 575.9375 L 385.09375 575.28125 L 385.5625 573.90625 L 388.21875 573.4375 L 389.59375 573.5625 L 391.875 571.65625 L 393.6875 574.84375 L 393.3125 577.5625 L 392.75 581.40625 L 393.40625 583.03125 L 393.25 586.09375 L 393.03125 588.6875 L 391.375 590.875 L 392.28125 594.03125 L 391.5 596.65625 L 393.59375 599.40625 L 396.46875 600.09375 L 400.375 603.3125 L 402.03125 606.40625 L 404.40625 610.5625 L 408.21875 612.40625 L 409.53125 614.21875 L 411.96875 615.78125 L 414.625 615.9375 L 417.6875 615.34375 L 420.0625 615.25 L 421.34375 614.09375 L 421.625 616.375 L 425.1875 619.375 L 423.3125 620.8125 L 422.53125 623.46875 L 419.8125 625.8125 L 421.71875 626.9375 L 423.90625 628.5 L 425.53125 630.21875 L 426.40625 630.71875 L 427.90625 630.75 L 427.71875 632.625 L 429.0625 635.28125 L 430.1875 635.34375 L 432.34375 637.28125 L 432.71875 639.59375 L 433.75 640.40625 L 434.84375 641.875 L 435.28125 643.8125 L 435.96875 644.9375 L 435.6875 645.40625 L 436.28125 645.875 L 437.0625 645.6875 L 438.5625 643.46875 L 439.78125 643.28125 L 440.71875 644.375 L 441.6875 644.3125 L 442.5 643.46875 L 443.40625 644.5625 L 444.71875 645.09375 L 445.3125 644.125 L 444.96875 642.9375 L 444.15625 642.5625 L 444.53125 641.8125 L 444.15625 639.125 L 445.125 637.46875 L 445.46875 635.875 L 443.78125 634.25 L 441.875 633.4375 L 441.09375 632 L 439.4375 630.28125 L 437.90625 629.8125 L 436.1875 630.96875 L 435.9375 629.15625 L 438.5625 628.28125 L 439 623.875 L 438.40625 622.25 L 439.90625 620.40625 L 444.34375 619.84375 L 443.90625 617.0625 L 444.84375 614.90625 L 443.21875 613.71875 L 447.21875 610.46875 L 449.84375 607.71875 L 452.34375 606.65625 L 453.46875 603.5 L 455.40625 603.15625 L 455.4375 601.375 L 456.4375 600.15625 L 457.46875 600.46875 L 458.15625 596.03125 L 460.34375 593.375 L 460.84375 590.40625 L 461.9375 587.71875 L 460.28125 584.28125 L 460.84375 580.28125 L 459.03125 577.875 L 458.4375 574.84375 L 460.34375 572.0625 L 461.4375 568.21875 L 464.65625 567.96875 L 467.6875 568.65625 L 468.5625 571.40625 L 471.34375 571.15625 L 473.6875 567.59375 L 474.9375 567.96875 L 474.125 570.59375 L 474.34375 573.875 L 474.5 577.34375 L 475.15625 580.28125 L 475.0625 583.46875 L 477.875 585.15625 L 478.4375 588.25 L 480.3125 590.5 L 483.5 592.125 L 488.78125 593.59375 L 491.625 592.875 L 494.3125 594.25 L 494.71875 591.75 L 496.03125 589.34375 L 496.3125 587.09375 L 498.40625 584.625 L 498.84375 586.375 L 500.34375 587.34375 L 502.4375 586.59375 L 504.5625 585.75 L 505.3125 584.5 L 507.28125 583.65625 L 509.125 583.6875 L 512 584.375 L 514.59375 584.1875 L 516.8125 585.9375 L 516.96875 588.0625 L 516.71875 590.78125 L 517.65625 594.1875 L 520.84375 594.8125 L 522.46875 596.8125 L 521.78125 601 L 523.375 601.78125 L 525.15625 601.8125 L 526.78125 600.90625 L 529.125 600.1875 L 531.75 597.46875 L 531.40625 596.09375 L 529.875 594.625 L 528.59375 592.21875 L 527.625 592.0625 L 527.15625 591.0625 L 527.5 589.8125 L 526.375 588.40625 L 526.8125 585.90625 L 527.75 585.125 L 528.40625 581.9375 L 529.3125 581.875 L 530.8125 581.90625 L 531.03125 579.5 L 529.25 579.03125 L 527.90625 577.875 L 525.25 578.3125 L 524.0625 577.59375 L 523.8125 576.78125 L 522.03125 575.6875 L 521.65625 573.59375 L 521.21875 571.09375 L 521.875 568.75 L 521.09375 567.75 L 522.25 565.46875 L 521.5625 565.28125 L 522.21875 563.53125 L 523.5 562.6875 L 523.8125 561.34375 L 525.15625 559.1875 L 526.59375 558.25 L 526.375 556.9375 L 527.71875 554.6875 L 529.09375 554.0625 L 532.03125 554.40625 L 533.15625 553.78125 L 534.78125 554.6875 L 535.09375 553.84375 L 536.6875 552.34375 L 537.15625 554.4375 L 536.71875 557.78125 L 537.53125 558.96875 L 540.40625 560.3125 L 539.6875 560.8125 L 540.34375 561.59375 L 540.15625 563.0625 L 543.0625 562.78125 L 544.03125 563.34375 L 547.03125 561.6875 L 547.40625 562.8125 L 549.34375 561.90625 L 550 563 L 550.96875 563.0625 L 552.5625 561.90625 L 554.03125 563.90625 L 555.875 562.59375 L 555.875 559.6875 L 556.59375 554.5625 L 555 552.40625 L 552.125 552.03125 L 549 550.4375 L 548.96875 547.15625 L 550.84375 542.25 L 549.84375 541.78125 L 550.34375 540.25 L 552.5625 540.21875 L 553.03125 539.125 L 552.3125 535.4375 L 554.625 533.21875 L 554.65625 531.84375 L 554.625 531.84375 L 554.9375 529.65625 L 554.875 526.25 L 554.875 523.8125 L 555.71875 522 L 556.90625 519.3125 L 557.15625 518.0625 L 554.5 516.34375 L 552.375 516.6875 L 551.875 513.9375 L 550.34375 512.84375 L 549.21875 511.1875 L 547.53125 511.78125 L 545.15625 512.84375 L 545.3125 515.65625 L 542.6875 517.5625 L 541.59375 519.96875 L 539.09375 519.375 L 538.0625 521.5 L 535.875 526.09375 L 534.03125 526 L 533 527.09375 L 532.15625 528.375 L 529.4375 527.90625 L 528.40625 529.3125 L 526.96875 528.71875 L 526.03125 528.9375 L 525.15625 530.3125 L 523.71875 528.15625 L 523.5 526.65625 L 523.5625 524.75 L 522.09375 523.15625 L 519.875 523.03125 L 515.9375 520.15625 L 512.625 518.5625 L 510.75 518.4375 L 509.84375 515.40625 L 511.8125 513.3125 L 511.65625 511.1875 L 509.8125 510.59375 L 510.40625 508.875 L 509.8125 508.0625 L 507.40625 509.03125 L 505.21875 508.40625 L 503.21875 506.9375 L 501.21875 507.25 L 500.375 505.75 L 498.5 505.75 L 497.59375 504.9375 L 495.75 504.5625 L 493.65625 503.90625 L 491.78125 504.125 L 489.28125 504.25 L 486.8125 503.53125 L 484.0625 504.03125 L 482.34375 505.0625 L 479.1875 505.84375 L 478.4375 504.96875 L 480.875 502.90625 L 482.21875 501.1875 L 482.09375 498.8125 L 480.65625 495.6875 L 480.375 491.5 L 481.875 487.25 L 482.09375 485.1875 L 483.78125 481.6875 L 484.75 480.125 L 485.625 478.75 L 488.6875 475.9375 L 489.46875 473.75 L 490.3125 472.46875 L 491.59375 470.90625 L 493.125 469.5 L 495.65625 467.9375 L 494.875 465.625 L 493.84375 465.59375 L 493.53125 462.90625 L 494.15625 461.75 L 493.6875 460.40625 L 492.03125 459.28125 L 491.03125 457.21875 L 489.25 456.4375 L 487.3125 455.3125 L 484.5625 449.53125 L 482.0625 446.59375 L 475.90625 441.6875 L 468.6875 438.0625 L 466.28125 437.34375 L 463.96875 436.6875 L 458.9375 436.6875 L 452.3125 434.5625 L 446.25 433.96875 L 441.90625 434.34375 L 438.34375 435.9375 L 436.03125 435 L 435.5625 432.625 L 436.15625 431.1875 L 428.90625 431.1875 L 428.90625 432.375 L 426.75 433.96875 L 422.375 432.46875 L 422.375 431.1875 L 422.34375 429.0625 L 423.53125 425.9375 L 422.21875 423.46875 L 420.0625 422.28125 L 418.46875 419.21875 L 414.46875 420.21875 L 413.78125 418.09375 L 411 418.09375 z M 419.4375 429.65625 L 420.28125 429.9375 L 420.875 430.96875 L 420.84375 431.1875 L 420.75 431.6875 L 419.6875 431.84375 L 419 432.71875 L 418.0625 432.4375 L 418.9375 431.1875 L 419 431.125 L 418.125 430.125 L 419.4375 429.65625 z M 456.59375 436.28125 L 458.28125 437.28125 L 458.25 437.34375 L 457.75 438.40625 L 456.125 437.40625 L 456.125 437.34375 L 456.59375 436.28125 z "
       id="path106" />
  </g>
</svg>
